# xmcd
# 
# Track frame offsets:
#     150
#     23667
#     46725
#     70082
#     91202
#     113025
#     134505
# 
# Disc length: 2112
# 
# Revision: 9
# Processed by: cddbd v1.5.2PL0 Copyright (c) Steve Scherf et al.
# Submitted via: BonkEnc v1.0
# 
DISCID=51083e07
DTITLE=Kiroro - 七色
DYEAR=2000
DGENRE=Vocal
TTITLE0=涙にさよなら
TTITLE1=笑っていようね
TTITLE2=空は私のもの
TTITLE3=Blue Sky
TTITLE4=虹
TTITLE5=天気雨
TTITLE6=ぴあの
EXTD=YEAR: 2000
EXTT0=
EXTT1=
EXTT2=
EXTT3=
EXTT4=
EXTT5=
EXTT6=
PLAYORDER=
